<?xml version="1.0" encoding="UTF-8"?>
<svg xmlns="http://www.w3.org/2000/svg" xmlns:xlink="http://www.w3.org/1999/xlink" width="50pt" height="50pt" viewBox="0 0 50 50" version="1.1">
<g id="surface15115115">
<path style="fill-rule:nonzero;fill:rgb(90.588235%,29.803922%,23.529412%);fill-opacity:1;stroke-width:10;stroke-linecap:butt;stroke-linejoin:round;stroke:rgb(80%,80%,80%);stroke-opacity:1;stroke-miterlimit:10;" d="M 6.887075 86 C 6.887075 42.378052 42.363787 6.887075 86 6.887075 C 129.636213 6.887075 165.112925 42.378052 165.112925 86 C 165.112925 120.963177 142.317675 150.691149 110.79233 161.118763 C 108.353039 160.063163 106.641255 157.638137 106.641255 154.799429 L 106.641255 136.226579 C 106.641255 126.940154 98.3819 113.516919 89.437832 113.516919 L 89.437832 113.417065 C 108.552747 112.661027 120.791998 106.199045 126.512208 96.29923 C 139.264995 96.370555 150.477176 97.597333 157.053278 98.652933 C 157.252986 97.526008 157.424164 96.399084 157.581077 95.257895 C 151.10483 94.216561 140.363389 93.046842 128.166932 92.889928 C 128.609143 91.791534 128.980029 90.66461 129.293856 89.509156 C 141.618697 88.852972 152.288814 89.337978 158.037553 89.822983 C 158.108877 88.667529 158.208731 87.540605 158.222996 86.385151 C 152.445727 85.914411 142.032378 85.44367 129.992834 86.02853 C 130.221072 84.459395 130.377986 82.847465 130.377986 81.178477 C 130.720342 74.987527 128.651937 69.138933 124.871749 63.989318 C 126.597797 58.483081 129.350916 46.101181 124.187036 41.279658 C 114.90061 41.279658 108.353039 45.758824 105.257564 48.497678 C 99.765592 46.101181 93.21802 44.717489 86 44.717489 C 78.78198 44.717489 72.234408 46.101181 66.40008 48.511943 C 63.304605 45.758824 56.757033 41.279658 47.470608 41.279658 C 42.663349 45.758824 45.074111 58.140725 46.785894 63.989318 C 43.005706 69.153198 40.937301 75.344148 40.937301 81.192742 C 40.937301 83.018644 41.108479 84.773222 41.379512 86.49927 C 29.625265 85.942941 19.482949 86.413681 13.805533 86.870157 C 13.819798 88.039875 13.905387 89.166799 13.976712 90.307988 C 19.639862 89.851513 30.067476 89.366507 42.149814 89.979896 C 42.420847 90.978437 42.763203 91.948447 43.148355 92.904193 C 31.094546 93.132431 20.624137 94.344944 14.433187 95.357749 C 14.590101 96.498938 14.761279 97.625863 14.960987 98.752787 C 21.223262 97.711452 32.192941 96.470409 44.803079 96.313495 C 50.608877 106.327428 63.062102 112.803676 82.562168 113.43133 L 82.562168 113.516919 C 77.911823 113.516919 73.461186 117.154459 70.251592 121.933187 C 67.498474 123.416733 62.905188 123.844679 54.346271 123.844679 C 48.854299 123.844679 45.758824 120.749204 42.649084 116.954751 C 39.910231 113.174562 35.431064 110.421444 33.362659 110.079087 C 31.308519 110.079087 30.609541 111.106157 31.650876 111.805135 C 37.841826 115.92768 38.868896 123.502322 41.279658 127.967224 C 43.348063 132.089769 47.812964 134.158174 52.976844 134.158174 C 55.045249 134.158174 65.358745 134.158174 65.358745 134.158174 C 65.401539 134.143909 65.458599 134.143909 65.501393 134.129644 C 65.415804 134.842887 65.358745 135.541866 65.358745 136.226579 L 65.358745 154.799429 C 65.358745 157.638137 63.646961 160.063163 61.20767 161.118763 C 29.682325 150.691149 6.887075 120.963177 6.887075 86 Z M 6.887075 86 " transform="matrix(0.273837,0,0,0.273837,1.45,1.45)"/>
<path style=" stroke:none;fill-rule:nonzero;fill:rgb(90.588235%,29.803922%,23.529412%);fill-opacity:1;" d="M 18.210938 45.570312 C 18.878906 45.28125 19.347656 44.617188 19.347656 43.839844 L 19.347656 38.753906 C 19.347656 38.566406 19.363281 38.375 19.386719 38.179688 C 19.375 38.183594 19.359375 38.183594 19.347656 38.1875 C 19.347656 38.1875 16.523438 38.1875 15.957031 38.1875 C 14.542969 38.1875 13.320312 37.621094 12.753906 36.492188 C 12.09375 35.269531 11.8125 33.195312 10.117188 32.066406 C 9.832031 31.875 10.023438 31.59375 10.585938 31.59375 C 11.152344 31.6875 12.378906 32.441406 13.128906 33.476562 C 13.980469 34.515625 14.828125 35.363281 16.332031 35.363281 C 18.675781 35.363281 19.933594 35.246094 20.6875 34.839844 C 21.566406 33.53125 22.785156 32.535156 24.058594 32.535156 L 24.058594 32.511719 C 18.71875 32.339844 15.308594 30.566406 13.71875 27.824219 C 10.265625 27.867188 7.261719 28.207031 5.546875 28.492188 C 5.492188 28.183594 5.445312 27.875 5.402344 27.5625 C 7.097656 27.285156 9.964844 26.953125 13.265625 26.890625 C 13.160156 26.628906 13.066406 26.363281 12.992188 26.089844 C 9.683594 25.921875 6.828125 26.054688 5.277344 26.179688 C 5.257812 25.867188 5.234375 25.558594 5.230469 25.238281 C 6.785156 25.113281 9.5625 24.984375 12.78125 25.136719 C 12.707031 24.664062 12.660156 24.183594 12.660156 23.683594 C 12.660156 22.082031 13.226562 20.386719 14.261719 18.972656 C 13.792969 17.371094 13.132812 13.980469 14.449219 12.753906 C 16.992188 12.753906 18.785156 13.980469 19.632812 14.734375 C 21.230469 14.074219 23.023438 13.695312 25 13.695312 C 26.976562 13.695312 28.769531 14.074219 30.273438 14.730469 C 31.121094 13.980469 32.914062 12.753906 35.457031 12.753906 C 36.871094 14.074219 36.117188 17.464844 35.644531 18.972656 C 36.679688 20.382812 37.246094 21.984375 37.152344 23.679688 C 37.152344 24.136719 37.109375 24.578125 37.046875 25.007812 C 40.34375 24.847656 43.195312 24.976562 44.777344 25.105469 C 44.773438 25.421875 44.746094 25.730469 44.726562 26.046875 C 43.152344 25.914062 40.230469 25.78125 36.855469 25.960938 C 36.769531 26.277344 36.667969 26.585938 36.546875 26.886719 C 39.886719 26.929688 42.828125 27.25 44.601562 27.535156 C 44.558594 27.847656 44.511719 28.15625 44.457031 28.464844 C 42.65625 28.175781 39.585938 27.839844 36.09375 27.820312 C 34.527344 30.53125 31.175781 32.300781 25.941406 32.507812 L 25.941406 32.535156 C 28.390625 32.535156 30.652344 36.210938 30.652344 38.753906 L 30.652344 43.839844 C 30.652344 44.617188 31.121094 45.28125 31.789062 45.570312 C 40.421875 42.714844 46.664062 34.574219 46.664062 25 C 46.664062 13.054688 36.949219 3.335938 25 3.335938 C 13.050781 3.335938 3.335938 13.054688 3.335938 25 C 3.335938 34.574219 9.578125 42.714844 18.210938 45.570312 Z M 18.210938 45.570312 "/>
</g>
</svg>
